<svg xmlns="http://www.w3.org/2000/svg" xmlns:xlink="http://www.w3.org/1999/xlink" width="600" zoomAndPan="magnify" viewBox="0 0 450 74.999997" height="100" preserveAspectRatio="xMidYMid meet" version="1.0"><defs><g/></defs><g fill="rgb(52.938843%, 18.818665%, 10.978699%)" fill-opacity="1"><g transform="translate(7.618129, 45.059732)"><g><path d="M 18.25 -26.265625 L 13.078125 -26.265625 C 5.875 -26.15625 0 -20.464844 0 -13.152344 C 0 -6.167969 5.800781 0 12.894531 0 L 18.25 0 C 21.683594 0 24.492188 -2.917969 24.492188 -6.242188 C 24.492188 -9.714844 21.683594 -12.671875 18.25 -12.671875 C 16.402344 -12.671875 14.960938 -11.820312 13.851562 -11.820312 C 13.078125 -11.820312 12.414062 -12.414062 12.414062 -13.152344 C 12.414062 -13.925781 13.078125 -14.59375 13.851562 -14.59375 C 14.960938 -14.59375 16.402344 -13.742188 18.25 -13.742188 C 21.683594 -13.742188 24.492188 -16.511719 24.492188 -19.984375 C 24.492188 -23.308594 21.683594 -26.265625 18.25 -26.265625 Z M 18.25 -26.265625 "/></g></g></g><g fill="rgb(52.938843%, 18.818665%, 10.978699%)" fill-opacity="1"><g transform="translate(33.212417, 45.059732)"><g><path d="M 19.320312 0.0351562 C 22.535156 0.0351562 25.195312 -2.585938 25.195312 -5.835938 L 25.195312 -20.390625 C 25.195312 -23.605469 22.535156 -26.230469 19.320312 -26.230469 C 16.03125 -26.230469 13.371094 -23.605469 13.371094 -20.390625 L 13.371094 -19.0625 C 13.371094 -18.65625 13.003906 -18.285156 12.558594 -18.285156 C 12.117188 -18.285156 11.746094 -18.65625 11.746094 -19.0625 L 11.746094 -20.390625 C 11.746094 -23.679688 9.160156 -26.230469 5.875 -26.230469 C 2.660156 -26.230469 0 -23.679688 0 -20.390625 L 0 -5.835938 C 0 -2.511719 2.660156 0.0351562 5.875 0.0351562 C 9.160156 0.0351562 11.746094 -2.511719 11.746094 -5.835938 L 11.746094 -7.09375 C 11.746094 -7.535156 12.117188 -7.90625 12.558594 -7.90625 C 13.003906 -7.90625 13.371094 -7.535156 13.371094 -7.09375 L 13.371094 -5.835938 C 13.371094 -2.585938 16.03125 0.0351562 19.320312 0.0351562 Z M 19.320312 0.0351562 "/></g></g></g><g fill="rgb(52.938843%, 18.818665%, 10.978699%)" fill-opacity="1"><g transform="translate(59.545383, 45.059732)"><g><path d="M 13.300781 -26.597656 C 5.984375 -26.597656 -0.109375 -20.539062 -0.109375 -13.152344 C -0.109375 -5.726562 5.984375 0.222656 13.300781 0.222656 C 20.722656 0.222656 26.78125 -5.726562 26.78125 -13.152344 C 26.78125 -20.539062 20.722656 -26.597656 13.300781 -26.597656 Z M 13.300781 -14.554688 C 14.074219 -14.554688 14.738281 -14 14.738281 -13.152344 C 14.738281 -12.375 14.074219 -11.710938 13.300781 -11.710938 C 12.632812 -11.710938 11.96875 -12.375 11.96875 -13.152344 C 11.96875 -14 12.632812 -14.554688 13.300781 -14.554688 Z M 13.300781 -14.554688 "/></g></g></g><g fill="rgb(52.938843%, 18.818665%, 10.978699%)" fill-opacity="1"><g transform="translate(87.318716, 45.059732)"><g><path d="M 13.300781 -26.597656 C 5.984375 -26.597656 -0.109375 -20.539062 -0.109375 -13.152344 C -0.109375 -5.726562 5.984375 0.222656 13.300781 0.222656 C 20.722656 0.222656 26.78125 -5.726562 26.78125 -13.152344 C 26.78125 -20.539062 20.722656 -26.597656 13.300781 -26.597656 Z M 13.300781 -14.554688 C 14.074219 -14.554688 14.738281 -14 14.738281 -13.152344 C 14.738281 -12.375 14.074219 -11.710938 13.300781 -11.710938 C 12.632812 -11.710938 11.96875 -12.375 11.96875 -13.152344 C 11.96875 -14 12.632812 -14.554688 13.300781 -14.554688 Z M 13.300781 -14.554688 "/></g></g></g><g fill="rgb(52.938843%, 18.818665%, 10.978699%)" fill-opacity="1"><g transform="translate(115.09205, 45.059732)"><g><path d="M 23.457031 -20.429688 C 23.457031 -23.679688 20.761719 -26.265625 17.472656 -26.265625 L 9.457031 -26.265625 C -1.21875 -26.375 -2.882812 -14.332031 4.359375 -10.527344 C 5.320312 -10.046875 6.390625 -9.640625 7.425781 -9.566406 C 7.722656 -9.457031 7.648438 -9.085938 7.351562 -9.085938 C 5.613281 -9.085938 3.695312 -9.566406 2.253906 -10.527344 C 0.628906 -9.347656 -0.0742188 -7.867188 -0.0742188 -5.875 C -0.0742188 -3.25 2.660156 0.0351562 5.800781 0.0351562 L 13.890625 0.0351562 C 25.601562 0.0351562 26.449219 -14.445312 16.585938 -16.699219 C 16.292969 -16.773438 16.402344 -17.179688 16.699219 -17.179688 C 18.175781 -17.066406 19.617188 -16.699219 20.835938 -15.996094 C 22.570312 -16.882812 23.457031 -18.507812 23.457031 -20.429688 Z M 23.457031 -20.429688 "/></g></g></g><g fill="rgb(52.938843%, 18.818665%, 10.978699%)" fill-opacity="1"><g transform="translate(139.652241, 45.059732)"><g><path d="M 0 -20.316406 L 0 -5.835938 C 0 -2.660156 2.585938 0 5.875 0 L 15.589844 0 C 19.691406 0 21.425781 -3.546875 21.425781 -5.835938 C 21.425781 -7.386719 21.242188 -8.054688 20.871094 -8.679688 C 19.503906 -7.054688 17.585938 -6.6875 15.664062 -6.871094 C 15.40625 -6.871094 15.40625 -7.316406 15.664062 -7.316406 C 17.214844 -7.5 18.691406 -7.941406 19.800781 -9.160156 C 21.425781 -10.785156 21.796875 -13.632812 20.796875 -15.8125 C 19.320312 -14.257812 17.324219 -13.816406 15.292969 -14.074219 C 15.035156 -14.1875 15.035156 -14.554688 15.292969 -14.554688 C 17.511719 -14.628906 19.246094 -15.292969 20.429688 -17.214844 C 22.832031 -20.945312 20.246094 -26.265625 15.589844 -26.265625 L 5.949219 -26.265625 C 2.476562 -26.265625 0 -23.605469 0 -20.316406 Z M 0 -20.316406 "/></g></g></g><g fill="rgb(52.938843%, 18.818665%, 10.978699%)" fill-opacity="1"><g transform="translate(162.033385, 45.059732)"><g/></g></g><g fill="rgb(52.938843%, 18.818665%, 10.978699%)" fill-opacity="1"><g transform="translate(171.598949, 45.059732)"><g><path d="M 15.257812 -24.601562 L 12.414062 -21.648438 L 9.492188 -24.601562 C 7.277344 -26.929688 3.695312 -26.929688 1.476562 -24.601562 C -0.738281 -22.351562 -0.738281 -18.617188 1.476562 -16.292969 L 6.539062 -11.121094 L 6.539062 -5.949219 C 6.539062 -2.695312 9.199219 -0.0742188 12.414062 -0.0742188 C 15.664062 -0.0742188 18.324219 -2.695312 18.324219 -5.949219 L 18.324219 -11.121094 L 23.382812 -16.292969 C 25.601562 -18.617188 25.601562 -22.351562 23.382812 -24.601562 C 21.167969 -26.929688 17.511719 -26.929688 15.257812 -24.601562 Z M 15.257812 -24.601562 "/></g></g></g><g fill="rgb(52.938843%, 18.818665%, 10.978699%)" fill-opacity="1"><g transform="translate(197.414829, 45.059732)"><g><path d="M 13.300781 -26.597656 C 5.984375 -26.597656 -0.109375 -20.539062 -0.109375 -13.152344 C -0.109375 -5.726562 5.984375 0.222656 13.300781 0.222656 C 20.722656 0.222656 26.78125 -5.726562 26.78125 -13.152344 C 26.78125 -20.539062 20.722656 -26.597656 13.300781 -26.597656 Z M 13.300781 -14.554688 C 14.074219 -14.554688 14.738281 -14 14.738281 -13.152344 C 14.738281 -12.375 14.074219 -11.710938 13.300781 -11.710938 C 12.632812 -11.710938 11.96875 -12.375 11.96875 -13.152344 C 11.96875 -14 12.632812 -14.554688 13.300781 -14.554688 Z M 13.300781 -14.554688 "/></g></g></g><g fill="rgb(52.938843%, 18.818665%, 10.978699%)" fill-opacity="1"><g transform="translate(225.188162, 45.059732)"><g><path d="M 12.597656 0.257812 C 19.46875 0.257812 25.195312 -5.46875 25.195312 -12.339844 L 25.195312 -20.28125 C 25.195312 -23.53125 22.496094 -26.230469 19.359375 -26.230469 C 16.070312 -26.230469 13.410156 -23.53125 13.410156 -20.28125 L 13.410156 -13.039062 C 13.410156 -12.597656 13.039062 -12.117188 12.597656 -12.117188 C 12.117188 -12.117188 11.785156 -12.597656 11.785156 -13.039062 L 11.785156 -20.28125 C 11.785156 -23.53125 9.199219 -26.230469 5.949219 -26.230469 C 2.660156 -26.230469 0 -23.53125 0 -20.28125 L 0 -12.339844 C 0 -5.46875 5.6875 0.257812 12.597656 0.257812 Z M 12.597656 0.257812 "/></g></g></g><g fill="rgb(52.938843%, 18.818665%, 10.978699%)" fill-opacity="1"><g transform="translate(251.410313, 45.059732)"><g><path d="M 5.835938 0.0742188 C 9.050781 0.0742188 11.5625 -2.328125 11.746094 -5.429688 L 14.925781 -1.664062 C 16.917969 1.035156 20.910156 0.628906 23.015625 -1.476562 C 25.121094 -3.582031 25.417969 -6.6875 23.753906 -9.050781 C 22.792969 -7.941406 21.648438 -7.167969 20.429688 -6.613281 C 20.207031 -6.5 20.023438 -6.871094 20.207031 -6.980469 C 23.015625 -8.941406 24.714844 -12.117188 24.714844 -15.738281 C 24.714844 -21.539062 20.023438 -26.230469 14.222656 -26.230469 L 5.949219 -26.230469 C 2.660156 -26.230469 -0.0351562 -23.644531 -0.0351562 -20.390625 L -0.0351562 -5.910156 C -0.0351562 -2.621094 2.660156 0.0742188 5.835938 0.0742188 Z M 12.414062 -16.917969 C 13.1875 -16.917969 13.742188 -16.253906 13.742188 -15.480469 C 13.742188 -14.703125 13.1875 -14.113281 12.414062 -14.113281 C 12.117188 -14.113281 11.933594 -14.113281 11.746094 -14.222656 L 11.746094 -16.734375 C 11.933594 -16.84375 12.117188 -16.917969 12.414062 -16.917969 Z M 12.414062 -16.917969 "/></g></g></g><g fill="rgb(52.938843%, 18.818665%, 10.978699%)" fill-opacity="1"><g transform="translate(277.226192, 45.059732)"><g/></g></g><g fill="rgb(52.938843%, 18.818665%, 10.978699%)" fill-opacity="1"><g transform="translate(286.791756, 45.059732)"><g><path d="M 3.214844 -0.480469 C 6.132812 0.886719 9.605469 -0.332031 11.007812 -3.25 L 12.117188 -5.652344 L 11.121094 -9.789062 C 11.082031 -10.046875 11.339844 -10.085938 11.414062 -9.9375 L 14.59375 -3.25 C 15.957031 -0.332031 19.429688 0.886719 22.351562 -0.480469 C 25.269531 -1.847656 26.488281 -5.355469 25.121094 -8.199219 L 18.066406 -23.050781 C 15.921875 -27.558594 9.53125 -27.484375 7.425781 -23.015625 L 0.441406 -8.199219 C -0.921875 -5.355469 0.296875 -1.847656 3.214844 -0.480469 Z M 3.214844 -0.480469 "/></g></g></g><g fill="rgb(52.938843%, 18.818665%, 10.978699%)" fill-opacity="1"><g transform="translate(313.27245, 45.059732)"><g><path d="M 22.351562 -26.191406 C 19.429688 -27.558594 15.957031 -26.339844 14.554688 -23.421875 L 13.445312 -21.019531 L 14.445312 -16.882812 C 14.480469 -16.625 14.222656 -16.585938 14.148438 -16.734375 L 10.972656 -23.421875 C 9.605469 -26.339844 6.132812 -27.558594 3.214844 -26.191406 C 0.296875 -24.824219 -0.921875 -21.316406 0.441406 -18.472656 L 7.5 -3.621094 C 9.640625 0.886719 16.03125 0.8125 18.136719 -3.65625 L 25.121094 -18.472656 C 26.488281 -21.316406 25.269531 -24.824219 22.351562 -26.191406 Z M 22.351562 -26.191406 "/></g></g></g><g fill="rgb(52.938843%, 18.818665%, 10.978699%)" fill-opacity="1"><g transform="translate(339.753144, 45.059732)"><g><path d="M 3.214844 -0.480469 C 6.132812 0.886719 9.605469 -0.332031 11.007812 -3.25 L 12.117188 -5.652344 L 11.121094 -9.789062 C 11.082031 -10.046875 11.339844 -10.085938 11.414062 -9.9375 L 14.59375 -3.25 C 15.957031 -0.332031 19.429688 0.886719 22.351562 -0.480469 C 25.269531 -1.847656 26.488281 -5.355469 25.121094 -8.199219 L 18.066406 -23.050781 C 15.921875 -27.558594 9.53125 -27.484375 7.425781 -23.015625 L 0.441406 -8.199219 C -0.921875 -5.355469 0.296875 -1.847656 3.214844 -0.480469 Z M 3.214844 -0.480469 "/></g></g></g><g fill="rgb(52.938843%, 18.818665%, 10.978699%)" fill-opacity="1"><g transform="translate(366.233837, 45.059732)"><g><path d="M 17.363281 -26.230469 L 5.726562 -26.230469 C 2.4375 -26.230469 -0.109375 -23.53125 -0.109375 -20.28125 C -0.109375 -17.140625 2.4375 -14.445312 5.726562 -14.445312 L 5.726562 -5.835938 C 5.726562 -2.550781 8.386719 0.148438 11.5625 0.148438 C 14.8125 0.148438 17.511719 -2.550781 17.511719 -5.835938 L 17.472656 -14.445312 C 20.761719 -14.445312 23.308594 -17.140625 23.308594 -20.28125 C 23.308594 -23.53125 20.652344 -26.230469 17.363281 -26.230469 Z M 17.363281 -26.230469 "/></g></g></g><g fill="rgb(52.938843%, 18.818665%, 10.978699%)" fill-opacity="1"><g transform="translate(390.092301, 45.059732)"><g><path d="M 3.214844 -0.480469 C 6.132812 0.886719 9.605469 -0.332031 11.007812 -3.25 L 12.117188 -5.652344 L 11.121094 -9.789062 C 11.082031 -10.046875 11.339844 -10.085938 11.414062 -9.9375 L 14.59375 -3.25 C 15.957031 -0.332031 19.429688 0.886719 22.351562 -0.480469 C 25.269531 -1.847656 26.488281 -5.355469 25.121094 -8.199219 L 18.066406 -23.050781 C 15.921875 -27.558594 9.53125 -27.484375 7.425781 -23.015625 L 0.441406 -8.199219 C -0.921875 -5.355469 0.296875 -1.847656 3.214844 -0.480469 Z M 3.214844 -0.480469 "/></g></g></g><g fill="rgb(52.938843%, 18.818665%, 10.978699%)" fill-opacity="1"><g transform="translate(416.572995, 45.059732)"><g><path d="M 5.835938 0.0742188 C 9.050781 0.0742188 11.5625 -2.328125 11.746094 -5.429688 L 14.925781 -1.664062 C 16.917969 1.035156 20.910156 0.628906 23.015625 -1.476562 C 25.121094 -3.582031 25.417969 -6.6875 23.753906 -9.050781 C 22.792969 -7.941406 21.648438 -7.167969 20.429688 -6.613281 C 20.207031 -6.5 20.023438 -6.871094 20.207031 -6.980469 C 23.015625 -8.941406 24.714844 -12.117188 24.714844 -15.738281 C 24.714844 -21.539062 20.023438 -26.230469 14.222656 -26.230469 L 5.949219 -26.230469 C 2.660156 -26.230469 -0.0351562 -23.644531 -0.0351562 -20.390625 L -0.0351562 -5.910156 C -0.0351562 -2.621094 2.660156 0.0742188 5.835938 0.0742188 Z M 12.414062 -16.917969 C 13.1875 -16.917969 13.742188 -16.253906 13.742188 -15.480469 C 13.742188 -14.703125 13.1875 -14.113281 12.414062 -14.113281 C 12.117188 -14.113281 11.933594 -14.113281 11.746094 -14.222656 L 11.746094 -16.734375 C 11.933594 -16.84375 12.117188 -16.917969 12.414062 -16.917969 Z M 12.414062 -16.917969 "/></g></g></g></svg>